# xmcd
#
# Track frame offsets: 
#        150
#        1884
#        4860
#        6446
#        8116
#        9159
#        12111
#        15077
#        19718
#        21804
#        25931
#        30760
#        35329
#        36617
#        44693
#        46395
#        49060
#        52599
#        55603
#        60067
#        62069
#        65921
#        67781
#        69450
#        71786
#        74747
#        77425
#        81034
#        84076
#        85689
#        88550
#        90177
#        93059
#        94678
#        96375
#        105121
#        112293
#        114104
#        115689
#        117472
#        118604
#        121072
#        123863
#        125689
#        128771
#        133096
#        136586
#        140915
#        146301
#        153074
#        155241
#        157965
#        162976
#        167954
#        171097
#        172370
#        174162
#        176121
#        179181
#        183224
#        185548
#        192390
#        200423
#        206043
#        211101
#        215183
#        219436
#        236673
#        253164
#        258244
#        266723
#        271990
#        273266
#        274842
#        278526
#        281367
#        283317
#        284874
#        287440
#        292091
#        295580
#        297147
#        300786
#        305428
#
# Disc length: 4093 seconds
#
# Revision: 0
# Processed by: cddbd v1.5.2PL0 Copyright (c) Steve Scherf et al.
# Submitted via: ExactAudioCopy v1.0b1
#
DISCID=a10ffb54
DTITLE=Hendrix, Jimi - Cover - Signature Licks Vol.2
DYEAR=1900
DGENRE=Instruction
TTITLE0=All Along The Watchtower
TTITLE1=All Along The Watchtower
TTITLE2=All Along The Watchtower
TTITLE3=All Along The Watchtower
TTITLE4=All Along The Watchtower
TTITLE5=All Along The Watchtower
TTITLE6=All Along The Watchtower
TTITLE7=All Along The Watchtower
TTITLE8=Angel
TTITLE9=Angel
TTITLE10=Angel
TTITLE11=Angel
TTITLE12=Angel
TTITLE13=Angel
TTITLE14=Angel
TTITLE15=Burning of the Midnight Lamp
TTITLE16=Burning of the Midnight Lamp
TTITLE17=Burning of the Midnight Lamp
TTITLE18=Burning of the Midnight Lamp
TTITLE19=Crosstown Traffic
TTITLE20=Crosstown Traffic
TTITLE21=Crosstown Traffic
TTITLE22=Crosstown Traffic
TTITLE23=Crosstown Traffic
TTITLE24=Crosstown Traffic
TTITLE25=Crosstown Traffic
TTITLE26=Crosstown Traffic
TTITLE27=Dolly Dagger
TTITLE28=Dolly Dagger
TTITLE29=Dolly Dagger
TTITLE30=Dolly Dagger
TTITLE31=Dolly Dagger
TTITLE32=Dolly Dagger
TTITLE33=Dolly Dagger
TTITLE34=Dolly Dagger
TTITLE35=Dolly Dagger
TTITLE36=Freedom
TTITLE37=Freedom
TTITLE38=Freedom
TTITLE39=Freedom
TTITLE40=Freedom
TTITLE41=Freedom
TTITLE42=Freedom
TTITLE43=Freedom
TTITLE44=Freedom
TTITLE45=Freedom
TTITLE46=Freedom
TTITLE47=Hey Baby (New Rising Sun)
TTITLE48=Hey Baby (New Rising Sun)
TTITLE49=Hey Baby (New Rising Sun)
TTITLE50=Hey Baby (New Rising Sun)
TTITLE51=Hey Baby (New Rising Sun)
TTITLE52=Hey Baby (New Rising Sun)
TTITLE53=I Don't Live Today
TTITLE54=I Don't Live Today
TTITLE55=I Don't Live Today
TTITLE56=I Don't Live Today
TTITLE57=I Don't Live Today
TTITLE58=I Don't Live Today
TTITLE59=I Don't Live Today
TTITLE60=Machine Gun
TTITLE61=Machine Gun
TTITLE62=Machine Gun
TTITLE63=Machine Gun
TTITLE64=Machine Gun
TTITLE65=Machine Gun
TTITLE66=Machine Gun
TTITLE67=Machine Gun
TTITLE68=Star Spangled Banner
TTITLE69=Star Spangled Banner
TTITLE70=Star Spangled Banner
TTITLE71=Stone Free
TTITLE72=Stone Free
TTITLE73=Stone Free
TTITLE74=Stone Free
TTITLE75=Stone Free
TTITLE76=Stone Free
TTITLE77=Stone Free
TTITLE78=Stone Free
TTITLE79=Stone Free
TTITLE80=Stone Free
TTITLE81=Third Stone from the Sun
TTITLE82=Third Stone from the Sun
TTITLE83=Third Stone from the Sun
EXTD=
EXTT0=
EXTT1=
EXTT2=
EXTT3=
EXTT4=
EXTT5=
EXTT6=
EXTT7=
EXTT8=
EXTT9=
EXTT10=
EXTT11=
EXTT12=
EXTT13=
EXTT14=
EXTT15=
EXTT16=
EXTT17=
EXTT18=
EXTT19=
EXTT20=
EXTT21=
EXTT22=
EXTT23=
EXTT24=
EXTT25=
EXTT26=
EXTT27=
EXTT28=
EXTT29=
EXTT30=
EXTT31=
EXTT32=
EXTT33=
EXTT34=
EXTT35=
EXTT36=
EXTT37=
EXTT38=
EXTT39=
EXTT40=
EXTT41=
EXTT42=
EXTT43=
EXTT44=
EXTT45=
EXTT46=
EXTT47=
EXTT48=
EXTT49=
EXTT50=
EXTT51=
EXTT52=
EXTT53=
EXTT54=
EXTT55=
EXTT56=
EXTT57=
EXTT58=
EXTT59=
EXTT60=
EXTT61=
EXTT62=
EXTT63=
EXTT64=
EXTT65=
EXTT66=
EXTT67=
EXTT68=
EXTT69=
EXTT70=
EXTT71=
EXTT72=
EXTT73=
EXTT74=
EXTT75=
EXTT76=
EXTT77=
EXTT78=
EXTT79=
EXTT80=
EXTT81=
EXTT82=
EXTT83=
PLAYORDER=
